<?xml version="1.0" standalone="no"?>
<!DOCTYPE svg PUBLIC "-//W3C//DTD SVG 20010904//EN"
 "http://www.w3.org/TR/2001/REC-SVG-20010904/DTD/svg10.dtd">
<svg version="1.0" xmlns="http://www.w3.org/2000/svg"
 width="207.000000pt" height="214.000000pt" viewBox="0 0 207.000000 214.000000"
 preserveAspectRatio="xMidYMid meet">
<metadata>
Created by potrace 1.10, written by Peter Selinger 2001-2011
</metadata>
<g transform="translate(0.000000,214.000000) scale(0.100000,-0.100000)"
fill="#b52626" stroke="none">
<path d="M899 1856 c-38 -13 -313 -169 -386 -218 -24 -16 -55 -50 -70 -76
l-28 -47 -3 -225 c-4 -272 2 -311 61 -374 37 -40 233 -162 380 -237 37 -20
126 -41 138 -33 3 2 -35 45 -86 97 -68 68 -101 111 -126 162 -31 64 -34 78
-34 160 0 116 18 150 135 264 79 77 111 123 97 138 -3 2 -11 -8 -19 -24 -7
-16 -23 -29 -35 -31 -30 -4 -39 34 -20 81 13 30 13 36 1 41 -27 10 -14 26 21
26 33 0 35 2 25 20 -6 12 -22 26 -36 32 -29 13 -32 28 -5 28 10 0 22 7 25 16
4 10 13 13 26 9 12 -4 27 -1 35 5 15 12 39 5 31 -9 -3 -4 17 -6 44 -3 44 4 50
2 50 -15 0 -24 -19 -43 -43 -43 -15 0 -12 -8 20 -44 48 -55 98 -152 118 -231
25 -99 16 -280 -17 -322 -20 -25 -115 34 -150 94 -27 45 -35 35 -10 -14 25
-48 54 -75 117 -107 47 -24 51 -24 63 -8 29 39 45 126 42 227 -6 205 -6 198
18 232 39 55 106 88 179 88 39 0 63 4 63 11 0 21 -60 94 -97 118 -99 64 -356
206 -390 215 -50 14 -90 13 -134 -3z m190 -58 c23 -13 50 -27 59 -33 109 -64
201 -115 209 -115 6 0 16 -7 23 -15 7 -8 16 -12 21 -9 5 3 8 2 7 -3 -2 -4 7
-18 20 -30 27 -28 28 -43 2 -43 -54 0 -190 -87 -190 -122 0 -20 -18 -5 -36 30
-10 20 -32 54 -48 75 -27 37 -28 40 -16 78 20 58 -2 76 -96 82 -89 6 -113 1
-150 -28 -27 -21 -28 -26 -18 -53 7 -17 8 -34 4 -39 -16 -17 -20 -128 -5 -156
14 -27 13 -29 -43 -86 -80 -81 -110 -141 -123 -245 l-10 -84 35 -76 c19 -42
54 -102 78 -134 24 -31 47 -62 51 -69 9 -14 -52 12 -93 39 -14 9 -70 43 -126
75 -123 71 -154 97 -179 148 -18 37 -20 60 -19 275 0 129 3 246 7 259 9 33 53
77 107 109 25 14 79 46 120 71 104 64 130 79 170 98 91 44 161 44 239 1z"/>
<path d="M1418 755 c-8 -9 3 -45 13 -45 5 0 9 5 9 10 0 6 8 5 20 -2 17 -11 22
-10 30 1 6 11 12 12 22 3 17 -14 78 -11 71 3 -3 6 0 5 7 -2 10 -9 16 -9 26 2
8 7 14 16 14 19 0 6 -48 1 -56 -7 -3 -3 -13 -3 -22 0 -15 4 -15 3 -2 -6 8 -6
10 -11 5 -11 -6 0 -15 4 -21 10 -5 5 -30 11 -54 12 -25 0 -48 5 -51 10 -3 4
-8 6 -11 3z"/>
<path d="M1006 735 c-3 -9 -6 -18 -6 -19 0 -5 59 2 69 9 6 3 11 1 11 -4 0 -6
7 -11 15 -11 8 0 15 3 15 8 0 4 12 8 27 9 18 1 22 -2 12 -7 -7 -5 -10 -12 -7
-15 9 -10 28 4 28 20 0 8 -11 14 -27 14 -16 0 -43 2 -60 4 -19 2 -33 -1 -33
-7 0 -6 -5 -4 -10 4 -9 13 -10 13 -10 0 0 -12 -2 -12 -9 -2 -7 11 -10 10 -15
-3z"/>
<path d="M1190 736 c0 -8 5 -18 10 -21 6 -3 10 3 10 14 0 12 -4 21 -10 21 -5
0 -10 -6 -10 -14z"/>
<path d="M1262 739 c-9 -3 -23 -4 -31 -1 -8 3 -4 -5 8 -17 22 -22 24 -22 42
-5 10 9 19 13 19 8 0 -5 13 -9 28 -10 21 -1 28 4 29 18 2 16 -1 17 -13 8 -8
-8 -14 -8 -14 -2 0 10 -39 11 -68 1z"/>
<path d="M1646 735 c-9 -23 -8 -25 9 -25 17 0 19 9 6 28 -7 11 -10 10 -15 -3z"/>
<path d="M1690 731 c0 -19 24 -21 62 -6 12 5 20 2 24 -9 3 -9 10 -13 15 -10 5
3 6 11 2 17 -4 7 0 6 10 -2 11 -9 17 -10 17 -2 0 6 1 14 3 18 3 9 -32 13 -38
3 -2 -4 -16 -5 -30 -2 -17 3 -25 0 -25 -9 -1 -10 -4 -8 -11 4 -13 22 -29 22
-29 -2z"/>
<path d="M1370 725 c0 -8 7 -15 16 -15 14 0 14 3 4 15 -7 8 -14 15 -16 15 -2
0 -4 -7 -4 -15z"/>
<path d="M1013 689 c-13 -13 -6 -39 9 -39 6 0 6 6 -1 14 -9 11 -9 15 1 19 7 2
10 7 7 10 -3 4 -10 2 -16 -4z"/>
<path d="M1718 695 c-8 -9 3 -45 13 -45 5 0 9 5 9 11 0 8 4 8 13 1 17 -14 90
-9 95 8 3 9 -2 11 -17 7 -11 -3 -21 -1 -21 5 0 5 -5 6 -11 2 -8 -4 -7 -9 2
-15 8 -5 9 -9 3 -9 -6 0 -17 6 -24 14 -6 8 -18 12 -27 9 -8 -3 -18 -1 -22 6
-4 6 -10 9 -13 6z"/>
<path d="M1040 668 c0 -19 2 -20 10 -8 7 11 10 11 10 2 0 -7 5 -10 10 -7 8 5
7 11 -1 21 -17 21 -29 17 -29 -8z"/>
<path d="M1083 668 c1 -21 -1 -20 31 -8 17 6 26 6 26 0 0 -6 5 -10 10 -10 7 0
8 6 2 17 -13 23 -71 24 -69 1z"/>
<path d="M1190 668 c0 -10 5 -18 10 -18 6 0 10 6 10 13 0 8 4 7 10 -3 9 -13
10 -13 10 0 0 13 1 13 10 0 8 -12 10 -12 10 -1 0 10 3 11 13 2 10 -8 17 -7 27
2 9 9 11 9 6 0 -4 -8 1 -11 14 -10 11 1 20 6 20 12 0 5 5 3 10 -5 7 -11 10
-11 10 -2 0 7 4 10 10 7 20 -12 50 -14 50 -2 0 8 3 8 12 -1 17 -17 24 -15 25
8 2 17 -2 20 -19 14 -12 -3 -37 -6 -57 -5 -20 0 -69 2 -109 3 -63 3 -72 1 -72
-14z"/>
<path d="M1515 681 c-10 -17 2 -28 30 -28 14 0 25 0 23 1 -2 1 -13 9 -25 19
-14 12 -23 15 -28 8z"/>
<path d="M1580 669 c0 -23 35 -26 44 -3 8 22 9 22 -19 22 -18 0 -25 -6 -25
-19z"/>
<path d="M1670 670 c0 -11 6 -20 14 -20 9 0 12 7 9 20 -3 11 -9 20 -14 20 -5
0 -9 -9 -9 -20z"/>
<path d="M398 590 c-22 -14 -41 -75 -33 -108 8 -35 33 -62 56 -62 49 0 69 118
26 158 -26 25 -26 25 -49 12z m50 -57 c-10 -2 -18 -14 -18 -25 0 -11 -5 -18
-12 -15 -7 2 -13 10 -13 18 0 8 -7 17 -15 21 -8 4 5 6 30 6 25 0 37 -2 28 -5z"/>
<path d="M528 590 c-23 -14 -40 -72 -32 -106 22 -95 107 -78 107 21 0 34 -6
52 -23 70 -26 28 -28 28 -52 15z m50 -57 c-10 -2 -18 -14 -18 -25 0 -11 -5
-18 -12 -15 -7 2 -13 10 -13 18 0 8 -7 17 -15 21 -8 4 5 6 30 6 25 0 37 -2 28
-5z"/>
<path d="M653 590 c-34 -14 -35 -76 -2 -99 26 -18 24 -33 -3 -29 -15 2 -24 -3
-26 -14 -4 -23 41 -34 74 -19 48 22 21 100 -37 102 -15 0 -19 3 -9 6 8 3 18
11 22 16 4 7 11 7 21 -2 13 -10 16 -8 22 9 4 12 5 23 3 25 -11 10 -46 12 -65
5z"/>
<path d="M1213 587 c-27 -12 -47 -67 -38 -106 9 -43 37 -64 74 -56 17 4 31 8
31 9 0 2 -5 17 -11 33 -8 24 -15 30 -30 26 -13 -4 -19 0 -19 11 0 9 8 16 19
16 19 0 48 55 33 63 -22 12 -39 13 -59 4z"/>
<path d="M1460 582 c-33 -27 -39 -99 -10 -134 26 -33 43 -35 70 -8 13 13 20
33 20 61 0 73 -40 113 -80 81z m58 -49 c-10 -2 -18 -13 -18 -24 0 -10 -7 -19
-15 -19 -8 0 -15 9 -15 19 0 11 -6 22 -12 24 -7 3 7 5 32 5 25 0 37 -2 28 -5z"/>
<path d="M1768 578 c-27 -27 -23 -63 9 -86 31 -22 24 -44 -7 -24 -18 11 -20 9
-20 -12 0 -37 55 -50 84 -20 35 34 7 93 -45 95 -15 0 -19 3 -9 6 8 3 18 11 22
16 4 7 12 6 22 -2 9 -8 16 -9 16 -3 0 6 3 17 6 25 9 24 -55 28 -78 5z"/>
<path d="M230 505 c0 -85 0 -85 26 -85 23 0 25 3 20 25 -8 31 2 54 15 34 5 -8
9 -24 9 -36 0 -18 6 -23 26 -23 24 0 25 2 18 28 -4 15 -7 47 -6 71 3 56 -10
71 -64 71 l-44 0 0 -85z m74 41 l27 -14 -28 -5 c-15 -3 -36 -1 -47 3 -17 7
-18 9 -3 9 9 1 17 6 17 11 0 13 3 13 34 -4z"/>
<path d="M730 562 c0 -27 2 -28 50 -28 48 0 50 1 50 28 0 27 -2 28 -50 28 -48
0 -50 -1 -50 -28z"/>
<path d="M850 506 l0 -84 45 0 c38 0 45 3 45 19 0 12 -7 19 -19 19 -28 0 -37
20 -12 27 12 3 21 13 21 24 0 15 -8 19 -37 20 l-38 1 43 11 c31 7 42 15 42 28
0 16 -8 19 -45 19 l-45 0 0 -84z"/>
<path d="M961 505 c-1 -84 -1 -85 24 -85 21 0 25 5 25 30 0 38 18 40 22 3 4
-36 48 -47 48 -13 0 12 -4 30 -10 40 -6 11 -6 28 -1 42 5 14 4 32 -2 46 -8 18
-18 22 -58 22 l-47 0 -1 -85z m69 35 c0 -22 -5 -23 -35 -10 -17 7 -17 9 -2 9
9 1 17 6 17 11 0 6 5 10 10 10 6 0 10 -9 10 -20z"/>
<path d="M1300 505 c0 -78 2 -85 20 -85 16 0 20 7 20 36 0 31 2 35 15 24 8 -7
15 -23 15 -36 0 -19 5 -24 26 -24 24 0 25 3 18 28 -4 15 -8 47 -9 72 -1 61 -9
70 -61 70 l-44 0 0 -85z m60 45 c0 -5 8 -10 18 -11 13 0 12 -2 -5 -9 -14 -6
-32 -6 -45 0 -18 7 -19 9 -5 9 9 1 17 6 17 11 0 6 5 10 10 10 6 0 10 -4 10
-10z"/>
<path d="M1575 505 c15 -65 24 -85 37 -85 12 0 19 11 24 35 7 39 24 38 24 -1
0 -23 24 -43 37 -31 3 3 11 34 18 69 8 35 17 71 20 81 6 13 2 17 -19 17 -21 0
-26 -5 -26 -24 0 -13 6 -27 13 -29 6 -3 -19 -5 -58 -5 -38 0 -62 2 -52 5 11 3
16 10 13 20 -3 8 -6 19 -6 24 0 5 -10 9 -23 9 l-23 0 21 -85z"/>
<path d="M1630 582 c0 -6 -3 -17 -6 -26 -5 -12 0 -16 21 -16 22 0 26 4 23 22
-3 22 -38 40 -38 20z"/>
<path d="M760 474 c0 -52 1 -55 23 -52 12 2 22 9 21 16 -1 6 -2 30 -2 52 -2
33 -6 40 -22 40 -18 0 -20 -7 -20 -56z"/>
<path d="M613 372 c-10 -26 -5 -102 7 -102 11 0 18 81 9 105 -7 19 -7 19 -16
-3z"/>
<path d="M989 388 c-1 -5 -2 -11 -3 -15 -1 -5 -5 -13 -9 -20 -4 -6 -3 -14 3
-18 5 -3 7 -19 3 -35 -3 -19 -1 -30 6 -30 6 0 11 13 11 28 0 15 4 32 8 38 5 5
3 20 -4 34 -8 14 -14 22 -15 18z"/>
<path d="M230 325 c0 -30 5 -55 10 -55 6 0 10 25 10 55 0 30 -4 55 -10 55 -5
0 -10 -25 -10 -55z"/>
<path d="M1067 366 c-3 -8 5 -25 18 -38 32 -30 31 -42 -1 -34 -19 5 -25 3 -22
-6 7 -19 43 -21 58 -3 11 13 9 20 -16 47 -27 29 -28 31 -6 25 15 -3 22 -1 22
9 0 19 -46 18 -53 0z"/>
<path d="M1161 328 c-20 -48 -20 -82 0 -46 10 17 48 14 61 -6 4 -6 9 -8 13 -5
7 7 -35 109 -45 109 -4 0 -17 -23 -29 -52z m42 2 c4 -15 0 -20 -13 -20 -13 0
-17 5 -13 20 3 11 9 20 13 20 4 0 10 -9 13 -20z"/>
<path d="M1260 325 c0 -30 5 -55 10 -55 6 0 10 12 10 28 l1 27 15 -27 c8 -16
20 -28 25 -28 7 0 6 9 -3 23 -11 16 -12 27 -5 38 15 24 1 49 -28 49 -24 0 -25
-3 -25 -55z m50 25 c0 -5 -7 -10 -15 -10 -8 0 -15 5 -15 10 0 6 7 10 15 10 8
0 15 -4 15 -10z"/>
<path d="M1348 325 c4 -50 6 -55 28 -55 30 0 32 16 3 23 -19 5 -21 11 -15 46
4 30 3 41 -6 41 -9 0 -12 -16 -10 -55z"/>
<path d="M1412 334 c3 -50 22 -72 52 -61 12 5 16 19 16 57 0 27 -4 50 -9 50
-5 0 -8 -19 -8 -42 1 -33 -3 -44 -16 -46 -14 -3 -17 5 -17 42 0 26 -5 46 -11
46 -6 0 -9 -19 -7 -46z"/>
<path d="M275 352 c-9 -10 -5 -82 5 -82 6 0 10 14 10 30 0 24 4 30 21 30 18 0
20 -4 14 -30 -4 -19 -3 -30 4 -30 12 0 15 80 4 81 -5 0 -18 2 -31 3 -12 2 -24
0 -27 -2z"/>
<path d="M360 348 c1 -7 9 -29 19 -48 l19 -35 16 40 c9 21 15 43 12 49 -2 6
-9 -2 -16 -19 l-12 -30 -14 28 c-16 29 -24 35 -24 15z"/>
<path d="M461 341 c-17 -17 -19 -26 -11 -41 14 -26 27 -32 50 -25 25 8 17 25
-9 18 -10 -3 -22 0 -25 6 -5 7 6 11 29 11 40 0 43 14 8 37 -19 13 -24 12 -42
-6z m44 -11 c3 -5 -3 -10 -14 -10 -12 0 -21 5 -21 10 0 6 6 10 14 10 8 0 18
-4 21 -10z"/>
<path d="M549 344 c-11 -14 -10 -18 11 -35 l25 -19 -24 0 c-19 0 -22 -3 -14
-11 15 -15 43 -4 43 17 0 9 -8 23 -17 31 -17 14 -17 14 0 9 12 -4 17 -2 15 6
-7 19 -24 20 -39 2z"/>
<path d="M655 352 c-9 -10 -5 -82 5 -82 6 0 10 13 10 29 0 16 6 31 14 34 17 7
27 -14 19 -42 -4 -14 -1 -21 9 -21 10 0 13 8 10 30 -3 18 0 30 7 30 6 0 14 0
19 0 4 1 10 -14 13 -32 6 -32 6 -32 8 9 1 45 -12 62 -34 43 -8 -6 -20 -8 -27
-4 -15 10 -46 13 -53 6z"/>
<path d="M806 341 c-11 -12 -15 -27 -11 -40 6 -21 38 -36 55 -26 17 11 11 23
-9 18 -10 -3 -22 0 -25 6 -5 7 4 11 23 11 36 0 42 23 12 40 -25 13 -25 13 -45
-9z m44 -11 c0 -5 -9 -10 -21 -10 -11 0 -17 5 -14 10 3 6 13 10 21 10 8 0 14
-4 14 -10z"/>
<path d="M890 314 c0 -51 17 -60 22 -11 2 17 8 32 13 32 6 0 11 -15 13 -32 4
-44 22 -42 22 1 0 37 -10 48 -47 52 -21 2 -23 -1 -23 -42z"/>
<path d="M1520 303 l0 -33 170 0 170 0 0 30 0 29 -170 3 -170 3 0 -32z"/>
</g>
</svg>
